<?xml version="1.0" encoding="utf-8"?>
<!-- Generator: Adobe Illustrator 16.0.0, SVG Export Plug-In . SVG Version: 6.00 Build 0)  -->
<!DOCTYPE svg PUBLIC "-//W3C//DTD SVG 1.1//EN" "http://www.w3.org/Graphics/SVG/1.1/DTD/svg11.dtd">
<svg version="1.1" id="圖層_1" xmlns="http://www.w3.org/2000/svg" xmlns:xlink="http://www.w3.org/1999/xlink" x="0px" y="0px"
	 width="143.667px" height="68.833px" viewBox="0 0 143.667 68.833" enable-background="new 0 0 143.667 68.833"
	 xml:space="preserve">
<polygon fill="#050505" points="46.696,11.037 36.136,25.982 34.677,11.037 22.479,11.037 15.485,33.804 24.302,33.804 
	28.599,18.085 30.301,33.804 37.328,33.804 48.548,18.376 43.216,33.804 52.045,33.804 58.991,11.037 "/>
<polygon fill="#050505" points="63.95,11.037 57.004,33.804 66.256,33.804 73.206,11.037 "/>
<polygon fill="#050505" points="97.838,11.037 94.022,24.724 86.866,11.037 77.713,11.037 70.767,33.804 79.758,33.804 
	83.657,20.117 90.729,33.804 99.883,33.804 106.831,11.037 "/>
<polygon fill="#050505" points="111.297,11.037 104.348,33.804 113.6,33.804 120.549,11.037 "/>
<path fill="#050505" d="M42.581,50.867H55.69v3.461H45.442c-6.969,0-9.358-3.127-9.358-5.748c0-2.623,2.254-3.963,2.254-3.963
	h-10.45c0,0-2.545,4.57,1.365,9.877c4.276,5.803,14.873,5.803,14.873,5.803h20.648v-9.43V46.57v-1.002H44.198L42.581,50.867z"/>
<path fill="#050505" d="M45.853,36.109c0,0-12.727-0.369-16.6,6.139h56.523v18.051h9.086V42.246l16.045-0.002l1.873-6.139
	L45.853,36.109z"/>
<polygon fill="#050505" points="124.647,8.53 125.743,8.53 125.743,11.816 126.668,11.816 126.668,8.53 127.782,8.53 127.782,7.759 
	124.647,7.759 "/>
<path fill="#050505" d="M132.448,7.758h-1.205l-0.438,1.351c-0.133,0.451-0.271,0.986-0.387,1.456h-0.021
	c-0.092-0.477-0.217-0.981-0.344-1.45l-0.4-1.354h-1.229l-0.26,4.057h0.854l0.072-1.541c0.029-0.505,0.047-1.131,0.072-1.68h0.014
	c0.096,0.529,0.234,1.106,0.367,1.583l0.436,1.572h0.723l0.494-1.583c0.158-0.477,0.328-1.055,0.455-1.571h0.02
	c0,0.591,0.021,1.181,0.037,1.667l0.061,1.553h0.9L132.448,7.758z"/>
</svg>
